<svg xmlns="http://www.w3.org/2000/svg" width="36" height="36" fill="none"><g filter="url(#a)"><g clip-path="url(#b)"><path fill="#fff" d="M0 12.8c0-4.48 0-6.72.872-8.432A8 8 0 0 1 4.368.872C6.08 0 8.32 0 12.8 0h10.4c4.48 0 6.72 0 8.432.872a8 8 0 0 1 3.496 3.496C36 6.08 36 8.32 36 12.8v10.4c0 4.48 0 6.72-.872 8.432a8 8 0 0 1-3.496 3.496C29.92 36 27.68 36 23.2 36H12.8c-4.48 0-6.72 0-8.432-.872a8 8 0 0 1-3.496-3.496C0 29.92 0 27.68 0 23.2V12.8Z"/><path fill="#FF9E9E" d="M0 0h5.143v36H0z"/><path fill="#FFBC6B" d="M5.143 0h5.143v36H5.143z"/><path fill="#FFE46E" d="M10.286 0h5.143v36h-5.143V0Z"/><path fill="#FFF978" d="M15.428 0h5.143v36h-5.143V0Z"/><path fill="#D3FF19" d="M20.571 0h5.143v36h-5.143V0Z"/><path fill="#7BE5FF" d="M25.714 0h5.143v36h-5.143z"/><path fill="#6AA6FF" d="M30.857 0H36v36h-5.143z"/><g filter="url(#c)"><path fill="#fff" fill-opacity=".2" d="M0 16.875h36V23.2c0 4.48 0 6.72-.872 8.432a8 8 0 0 1-3.496 3.496C29.92 36 27.68 36 23.2 36H12.8c-4.48 0-6.72 0-8.432-.872a8 8 0 0 1-3.496-3.496C0 29.92 0 27.68 0 23.2v-6.325Z"/></g><mask id="d" width="26" height="29" x="5.216" y="3.385" fill="#000" maskUnits="userSpaceOnUse"><path fill="#fff" d="M5.216 3.385h26v29h-26z"/><path d="M19.371 6.025c.841.667 1.305 1.547 1.463 2.631.038.316.034.634.032.952v.237l-.002.635-.002.668c0 .42-.001.84-.003 1.259l-.004 1.435c-.001.983-.004 1.967-.007 2.95l-.228.027-.129.016c-.528.05-1.063-.203-1.467-.542-.248-.245-.497-.529-.602-.875.012-.256.143-.431.28-.635.313-.488.563-1.069.51-1.672-.063-.127-.063-.127-.157-.22-.161-.024-.265-.037-.401.062-.104.146-.115.279-.143.457-.124.642-.375 1.163-.88 1.569-.439.28-.846.427-1.358.46-.181.015-.264.026-.422.127-.08.128-.08.128-.063.299.037.174.037.174.208.267.633.08 1.22-.124 1.793-.384l.066.115c.503.853 1.113 1.405 2.06 1.653.201.041.4.06.605.075l.186.014.142.01a3267.751 3267.751 0 0 1 .008 5.228 774.202 774.202 0 0 1 .003 2.21 192.801 192.801 0 0 1 .001.985c.006 1.234-.191 2.292-1.014 3.223-.718.713-1.606 1.083-2.596 1.07-.947-.04-1.747-.421-2.414-1.125l-.102-.102c-.429-.464-.795-1.218-.795-1.869a3.171 3.171 0 0 1 1.213-1.929c.534-.331 1.107-.589 1.74-.55.176.057.176.057.353.131.338.132.66.215 1.019.254l.125.014c.179.01.279-.001.428-.107.095-.151.11-.224.08-.401-.08-.105-.133-.157-.258-.194l-.111-.013-.125-.017-.133-.016c-.858-.127-1.582-.462-2.141-1.18-.359-.528-.69-1.215-.608-1.876.048-.139.101-.273.157-.408.202-.53.22-1.085.054-1.625-.147-.076-.258-.068-.421-.055-.095.061-.095.061-.159.165-.015.143-.015.143-.003.302.014.703-.146 1.338-.616 1.865-.324.31-.711.472-1.13.592-.116.04-.116.04-.202.208-.018.153-.02.24.056.374.161.103.292.1.471.065.323-.103.633-.218.904-.433l.151-.116.158.055c.059.138.059.138.116.319.193.553.509 1.006.886 1.439-.15.104-.28.162-.448.23-1.09.47-1.698 1.318-2.188 2.406-1.06.031-2.01-.125-2.822-.896-.692-.692-1.12-1.551-1.152-2.56-.007-.71.154-1.34.44-1.982l-.2-.034c-.762-.182-1.448-.825-1.856-1.504-.451-.853-.624-1.818-.409-2.774a8.84 8.84 0 0 1 .092-.302l.043-.141c.276-.817.906-1.459 1.61-1.887.14-.06.14-.06.243-.055.158.073.303.166.451.26.493.3.963.453 1.53.525l.124.016c.161.017.297.027.454-.023.1-.072.1-.072.13-.257.02-.19.02-.19-.063-.3-.193-.129-.396-.135-.62-.16-.667-.087-1.459-.376-1.898-.945-.219-.764-.012-1.677.3-2.379.46-.883 1.2-1.537 2.126-1.829.654-.179 1.41-.191 2.057.034l-.008-.186c-.03-1.061.197-1.98.88-2.803 1.212-1.33 3.14-1.547 4.612-.527Zm8.859 4.725c.37.368.533.76.547 1.287-.016.56-.151.876-.525 1.284-.209.196-.418.34-.707.34l.005.162c.012.582-.026 1.027-.384 1.493-.285.305-.58.48-.989.493h-.863l-.322-.001a597.702 597.702 0 0 1-1.71-.002l-1.696-.003v-.88h.42c.46-.002.92-.005 1.379-.01l.835-.004a120.4 120.4 0 0 0 1.114-.007c.143 0 .287-.001.43-.003h.129a.88.88 0 0 0 .65-.25c.12-.212.117-.405.112-.649l-.003-.193-.004-.146-.104-.047c-.488-.233-.749-.536-.95-1.052-.144-.497-.034-.99.194-1.439.3-.38.602-.615 1.058-.745.522-.042.947.06 1.384.371Zm-6.644 11.645a827.763 827.763 0 0 1 2.527-.009 222.112 222.112 0 0 1 1.07-.003c1.407-.008 1.407-.008 1.924.48.386.427.46.88.449 1.444l-.011.285.145.018c.383.082.693.423.91.75.23.402.225.927.12 1.37a1.733 1.733 0 0 1-.816.978c-.482.227-.93.203-1.42.03-.371-.163-.67-.5-.834-.88-.157-.5-.137-.951.05-1.442.224-.401.525-.677.948-.824.039-.55.039-.55-.158-1.044-.254-.256-.576-.228-.911-.23l-.131-.002-.427-.005a293.695 293.695 0 0 1-1.077-.012l-.796-.009-1.562-.017v-.878Zm6.381-4.725c.368.275.613.586.738 1.044.064.565.002 1.015-.316 1.483a1.66 1.66 0 0 1-1.156.615 1.621 1.621 0 0 1-1.188-.416c-.27-.27-.389-.466-.451-.858h-4.008v-.879h4.008l.158-.494a1.635 1.635 0 0 1 2.215-.494ZM25.038 6.765c.383.29.626.637.714 1.128.052.538-.049 1.02-.376 1.449-.206.226-.453.363-.732.473h-.105l.005.15c.013.572-.025 1.05-.38 1.508-.369.372-.74.494-1.24.49h-.115l-.366-.002h-.249l-.608-.003v-.88l.337-.005.324-.009.225-.004.324-.008.197-.005a.75.75 0 0 0 .53-.298c.125-.206.125-.377.123-.614l-.002-.181c0-.046 0-.092-.002-.139l-.19-.092c-.445-.234-.7-.548-.88-1.024-.1-.559-.05-1.053.256-1.53a1.664 1.664 0 0 1 2.21-.404Zm-3.452 18.431c1.34-.055 1.34-.055 1.806.388.426.458.478.829.47 1.445l-.009.31.145.018c.384.082.693.422.91.75.205.399.211.82.158 1.264-.147.477-.382.81-.797 1.055-.453.232-.885.257-1.365.099-.424-.183-.697-.459-.916-.876-.157-.403-.156-.908-.04-1.322.217-.488.544-.776 1.009-.989.048-.507.048-.507-.096-.975-.166-.177-.274-.246-.508-.256a181.263 181.263 0 0 1-.276-.011l-.143-.007-.348-.014v-.879Z"/></mask><path fill="#fff" d="M19.371 6.025c.841.667 1.305 1.547 1.463 2.631.038.316.034.634.032.952v.237l-.002.635-.002.668c0 .42-.001.84-.003 1.259l-.004 1.435c-.001.983-.004 1.967-.007 2.95l-.228.027-.129.016c-.528.05-1.063-.203-1.467-.542-.248-.245-.497-.529-.602-.875.012-.256.143-.431.28-.635.313-.488.563-1.069.51-1.672-.063-.127-.063-.127-.157-.22-.161-.024-.265-.037-.401.062-.104.146-.115.279-.143.457-.124.642-.375 1.163-.88 1.569-.439.28-.846.427-1.358.46-.181.015-.264.026-.422.127-.08.128-.08.128-.063.299.037.174.037.174.208.267.633.08 1.22-.124 1.793-.384l.066.115c.503.853 1.113 1.405 2.06 1.653.201.041.4.06.605.075l.186.014.142.01a3267.751 3267.751 0 0 1 .008 5.228 774.202 774.202 0 0 1 .003 2.21 192.801 192.801 0 0 1 .001.985c.006 1.234-.191 2.292-1.014 3.223-.718.713-1.606 1.083-2.596 1.07-.947-.04-1.747-.421-2.414-1.125l-.102-.102c-.429-.464-.795-1.218-.795-1.869a3.171 3.171 0 0 1 1.213-1.929c.534-.331 1.107-.589 1.74-.55.176.057.176.057.353.131.338.132.66.215 1.019.254l.125.014c.179.01.279-.001.428-.107.095-.151.11-.224.08-.401-.08-.105-.133-.157-.258-.194l-.111-.013-.125-.017-.133-.016c-.858-.127-1.582-.462-2.141-1.18-.359-.528-.69-1.215-.608-1.876.048-.139.101-.273.157-.408.202-.53.22-1.085.054-1.625-.147-.076-.258-.068-.421-.055-.095.061-.095.061-.159.165-.015.143-.015.143-.003.302.014.703-.146 1.338-.616 1.865-.324.31-.711.472-1.13.592-.116.04-.116.04-.202.208-.018.153-.02.24.056.374.161.103.292.1.471.065.323-.103.633-.218.904-.433l.151-.116.158.055c.059.138.059.138.116.319.193.553.509 1.006.886 1.439-.15.104-.28.162-.448.23-1.09.47-1.698 1.318-2.188 2.406-1.06.031-2.01-.125-2.822-.896-.692-.692-1.12-1.551-1.152-2.56-.007-.71.154-1.34.44-1.982l-.2-.034c-.762-.182-1.448-.825-1.856-1.504-.451-.853-.624-1.818-.409-2.774a8.84 8.84 0 0 1 .092-.302l.043-.141c.276-.817.906-1.459 1.61-1.887.14-.06.14-.06.243-.055.158.073.303.166.451.26.493.3.963.453 1.53.525l.124.016c.161.017.297.027.454-.023.1-.072.1-.072.13-.257.02-.19.02-.19-.063-.3-.193-.129-.396-.135-.62-.16-.667-.087-1.459-.376-1.898-.945-.219-.764-.012-1.677.3-2.379.46-.883 1.2-1.537 2.126-1.829.654-.179 1.41-.191 2.057.034l-.008-.186c-.03-1.061.197-1.98.88-2.803 1.212-1.33 3.14-1.547 4.612-.527Zm8.859 4.725c.37.368.533.76.547 1.287-.016.56-.151.876-.525 1.284-.209.196-.418.34-.707.34l.005.162c.012.582-.026 1.027-.384 1.493-.285.305-.58.48-.989.493h-.863l-.322-.001a597.702 597.702 0 0 1-1.71-.002l-1.696-.003v-.88h.42c.46-.002.92-.005 1.379-.01l.835-.004a120.4 120.4 0 0 0 1.114-.007c.143 0 .287-.001.43-.003h.129a.88.88 0 0 0 .65-.25c.12-.212.117-.405.112-.649l-.003-.193-.004-.146-.104-.047c-.488-.233-.749-.536-.95-1.052-.144-.497-.034-.99.194-1.439.3-.38.602-.615 1.058-.745.522-.042.947.06 1.384.371Zm-6.644 11.645a827.763 827.763 0 0 1 2.527-.009 222.112 222.112 0 0 1 1.07-.003c1.407-.008 1.407-.008 1.924.48.386.427.46.88.449 1.444l-.011.285.145.018c.383.082.693.423.91.75.23.402.225.927.12 1.37a1.733 1.733 0 0 1-.816.978c-.482.227-.93.203-1.42.03-.371-.163-.67-.5-.834-.88-.157-.5-.137-.951.05-1.442.224-.401.525-.677.948-.824.039-.55.039-.55-.158-1.044-.254-.256-.576-.228-.911-.23l-.131-.002-.427-.005a293.695 293.695 0 0 1-1.077-.012l-.796-.009-1.562-.017v-.878Zm6.381-4.725c.368.275.613.586.738 1.044.064.565.002 1.015-.316 1.483a1.66 1.66 0 0 1-1.156.615 1.621 1.621 0 0 1-1.188-.416c-.27-.27-.389-.466-.451-.858h-4.008v-.879h4.008l.158-.494a1.635 1.635 0 0 1 2.215-.494ZM25.038 6.765c.383.29.626.637.714 1.128.052.538-.049 1.02-.376 1.449-.206.226-.453.363-.732.473h-.105l.005.15c.013.572-.025 1.05-.38 1.508-.369.372-.74.494-1.24.49h-.115l-.366-.002h-.249l-.608-.003v-.88l.337-.005.324-.009.225-.004.324-.008.197-.005a.75.75 0 0 0 .53-.298c.125-.206.125-.377.123-.614l-.002-.181c0-.046 0-.092-.002-.139l-.19-.092c-.445-.234-.7-.548-.88-1.024-.1-.559-.05-1.053.256-1.53a1.664 1.664 0 0 1 2.21-.404Zm-3.452 18.431c1.34-.055 1.34-.055 1.806.388.426.458.478.829.47 1.445l-.009.31.145.018c.384.082.693.422.91.75.205.399.211.82.158 1.264-.147.477-.382.81-.797 1.055-.453.232-.885.257-1.365.099-.424-.183-.697-.459-.916-.876-.157-.403-.156-.908-.04-1.322.217-.488.544-.776 1.009-.989.048-.507.048-.507-.096-.975-.166-.177-.274-.246-.508-.256a181.263 181.263 0 0 1-.276-.011l-.143-.007-.348-.014v-.879Z"/><path stroke="#111" stroke-width="3" d="M19.371 6.025c.841.667 1.305 1.547 1.463 2.631.038.316.034.634.032.952v.237l-.002.635-.002.668c0 .42-.001.84-.003 1.259l-.004 1.435c-.001.983-.004 1.967-.007 2.95l-.228.027-.129.016c-.528.05-1.063-.203-1.467-.542-.248-.245-.497-.529-.602-.875.012-.256.143-.431.28-.635.313-.488.563-1.069.51-1.672-.063-.127-.063-.127-.157-.22-.161-.024-.265-.037-.401.062-.104.146-.115.279-.143.457-.124.642-.375 1.163-.88 1.569-.439.28-.846.427-1.358.46-.181.015-.264.026-.422.127-.08.128-.08.128-.063.299.037.174.037.174.208.267.633.08 1.22-.124 1.793-.384l.066.115c.503.853 1.113 1.405 2.06 1.653.201.041.4.06.605.075l.186.014.142.01a3267.751 3267.751 0 0 1 .008 5.228 774.202 774.202 0 0 1 .003 2.21 192.801 192.801 0 0 1 .001.985c.006 1.234-.191 2.292-1.014 3.223-.718.713-1.606 1.083-2.596 1.07-.947-.04-1.747-.421-2.414-1.125l-.102-.102c-.429-.464-.795-1.218-.795-1.869a3.171 3.171 0 0 1 1.213-1.929c.534-.331 1.107-.589 1.74-.55.176.057.176.057.353.131.338.132.66.215 1.019.254l.125.014c.179.01.279-.001.428-.107.095-.151.11-.224.08-.401-.08-.105-.133-.157-.258-.194l-.111-.013-.125-.017-.133-.016c-.858-.127-1.582-.462-2.141-1.18-.359-.528-.69-1.215-.608-1.876.048-.139.101-.273.157-.408.202-.53.22-1.085.054-1.625-.147-.076-.258-.068-.421-.055-.095.061-.095.061-.159.165-.015.143-.015.143-.003.302.014.703-.146 1.338-.616 1.865-.324.31-.711.472-1.13.592-.116.04-.116.04-.202.208-.018.153-.02.24.056.374.161.103.292.1.471.065.323-.103.633-.218.904-.433l.151-.116.158.055c.059.138.059.138.116.319.193.553.509 1.006.886 1.439-.15.104-.28.162-.448.23-1.09.47-1.698 1.318-2.188 2.406-1.06.031-2.01-.125-2.822-.896-.692-.692-1.12-1.551-1.152-2.56-.007-.71.154-1.34.44-1.982l-.2-.034c-.762-.182-1.448-.825-1.856-1.504-.451-.853-.624-1.818-.409-2.774a8.84 8.84 0 0 1 .092-.302l.043-.141c.276-.817.906-1.459 1.61-1.887.14-.06.14-.06.243-.055.158.073.303.166.451.26.493.3.963.453 1.53.525l.124.016c.161.017.297.027.454-.023.1-.072.1-.072.13-.257.02-.19.02-.19-.063-.3-.193-.129-.396-.135-.62-.16-.667-.087-1.459-.376-1.898-.945-.219-.764-.012-1.677.3-2.379.46-.883 1.2-1.537 2.126-1.829.654-.179 1.41-.191 2.057.034l-.008-.186c-.03-1.061.197-1.98.88-2.803 1.212-1.33 3.14-1.547 4.612-.527Zm8.859 4.725c.37.368.533.76.547 1.287-.016.56-.151.876-.525 1.284-.209.196-.418.34-.707.34l.005.162c.012.582-.026 1.027-.384 1.493-.285.305-.58.48-.989.493h-.863l-.322-.001a597.702 597.702 0 0 1-1.71-.002l-1.696-.003v-.88h.42c.46-.002.92-.005 1.379-.01l.835-.004a120.4 120.4 0 0 0 1.114-.007c.143 0 .287-.001.43-.003h.129a.88.88 0 0 0 .65-.25c.12-.212.117-.405.112-.649l-.003-.193-.004-.146-.104-.047c-.488-.233-.749-.536-.95-1.052-.144-.497-.034-.99.194-1.439.3-.38.602-.615 1.058-.745.522-.042.947.06 1.384.371Zm-6.644 11.645a827.763 827.763 0 0 1 2.527-.009 222.112 222.112 0 0 1 1.07-.003c1.407-.008 1.407-.008 1.924.48.386.427.46.88.449 1.444l-.011.285.145.018c.383.082.693.423.91.75.23.402.225.927.12 1.37a1.733 1.733 0 0 1-.816.978c-.482.227-.93.203-1.42.03-.371-.163-.67-.5-.834-.88-.157-.5-.137-.951.05-1.442.224-.401.525-.677.948-.824.039-.55.039-.55-.158-1.044-.254-.256-.576-.228-.911-.23l-.131-.002-.427-.005a293.695 293.695 0 0 1-1.077-.012l-.796-.009-1.562-.017v-.878Zm6.381-4.725c.368.275.613.586.738 1.044.064.565.002 1.015-.316 1.483a1.66 1.66 0 0 1-1.156.615 1.621 1.621 0 0 1-1.188-.416c-.27-.27-.389-.466-.451-.858h-4.008v-.879h4.008l.158-.494a1.635 1.635 0 0 1 2.215-.494ZM25.038 6.765c.383.29.626.637.714 1.128.052.538-.049 1.02-.376 1.449-.206.226-.453.363-.732.473h-.105l.005.15c.013.572-.025 1.05-.38 1.508-.369.372-.74.494-1.24.49h-.115l-.366-.002h-.249l-.608-.003v-.88l.337-.005.324-.009.225-.004.324-.008.197-.005a.75.75 0 0 0 .53-.298c.125-.206.125-.377.123-.614l-.002-.181c0-.046 0-.092-.002-.139l-.19-.092c-.445-.234-.7-.548-.88-1.024-.1-.559-.05-1.053.256-1.53a1.664 1.664 0 0 1 2.21-.404Zm-3.452 18.431c1.34-.055 1.34-.055 1.806.388.426.458.478.829.47 1.445l-.009.31.145.018c.384.082.693.422.91.75.205.399.211.82.158 1.264-.147.477-.382.81-.797 1.055-.453.232-.885.257-1.365.099-.424-.183-.697-.459-.916-.876-.157-.403-.156-.908-.04-1.322.217-.488.544-.776 1.009-.989.048-.507.048-.507-.096-.975-.166-.177-.274-.246-.508-.256a181.263 181.263 0 0 1-.276-.011l-.143-.007-.348-.014v-.879Z" mask="url(#d)"/></g><path stroke="#0A0D12" stroke-opacity=".12" stroke-width=".2" d="M12.8.1h10.4c2.242 0 3.917 0 5.246.109 1.328.108 2.301.324 3.14.752a7.9 7.9 0 0 1 3.453 3.452c.428.84.644 1.813.752 3.14.109 1.33.109 3.005.109 5.247v10.4c0 2.242 0 3.917-.109 5.246-.108 1.328-.324 2.301-.752 3.14a7.9 7.9 0 0 1-3.453 3.453c-.839.428-1.812.644-3.14.752-1.329.109-3.004.109-5.246.109H12.8c-2.242 0-3.917 0-5.246-.109-1.328-.108-2.301-.324-3.14-.752A7.9 7.9 0 0 1 .96 31.586c-.428-.839-.644-1.812-.752-3.14C.1 27.117.1 25.442.1 23.2V12.8c0-2.242 0-3.917.109-5.246.108-1.328.324-2.301.752-3.14A7.9 7.9 0 0 1 4.413.96c.84-.428 1.813-.644 3.14-.752C8.884.1 10.559.1 12.8.1Z"/></g><defs><filter id="a" width="36" height="36.5" x="0" y="-.5" color-interpolation-filters="sRGB" filterUnits="userSpaceOnUse"><feFlood flood-opacity="0" result="BackgroundImageFix"/><feBlend in="SourceGraphic" in2="BackgroundImageFix" result="shape"/><feColorMatrix in="SourceAlpha" result="hardAlpha" values="0 0 0 0 0 0 0 0 0 0 0 0 0 0 0 0 0 0 127 0"/><feOffset dy="-.5"/><feGaussianBlur stdDeviation=".25"/><feComposite in2="hardAlpha" k2="-1" k3="1" operator="arithmetic"/><feColorMatrix values="0 0 0 0 0.0392157 0 0 0 0 0.0509804 0 0 0 0 0.0705882 0 0 0 0.1 0"/><feBlend in2="shape" result="effect1_innerShadow_18_1517"/></filter><filter id="c" width="46" height="29.125" x="-5" y="11.875" color-interpolation-filters="sRGB" filterUnits="userSpaceOnUse"><feFlood flood-opacity="0" result="BackgroundImageFix"/><feGaussianBlur in="BackgroundImageFix" stdDeviation="2.5"/><feComposite in2="SourceAlpha" operator="in" result="effect1_backgroundBlur_18_1517"/><feBlend in="SourceGraphic" in2="effect1_backgroundBlur_18_1517" result="shape"/></filter><clipPath id="b"><path fill="#fff" d="M0 12.8c0-4.48 0-6.72.872-8.432A8 8 0 0 1 4.368.872C6.08 0 8.32 0 12.8 0h10.4c4.48 0 6.72 0 8.432.872a8 8 0 0 1 3.496 3.496C36 6.08 36 8.32 36 12.8v10.4c0 4.48 0 6.72-.872 8.432a8 8 0 0 1-3.496 3.496C29.92 36 27.68 36 23.2 36H12.8c-4.48 0-6.72 0-8.432-.872a8 8 0 0 1-3.496-3.496C0 29.92 0 27.68 0 23.2V12.8Z"/></clipPath></defs></svg>